<svg xmlns="http://www.w3.org/2000/svg" viewBox="0 0 420.63 435.56" fill="#222222">
	<path id="SPOON" d="M149.21,30C120.08.88,81.5-7.8,63.05,10.64s-9.76,57,19.38,86.15c15,15,30.58,22.64,44.71,24.06l0,0h.36a45.46,45.46,0,0,0,11.52-.35c1.88,0,3.77,0,5.47,0,14.67.35,18.85,3.29,18.85,3.29,44.46,31.43,111.18,123.61,138,158.42s48,14.83,48.1,14.76,20-21.31-14.76-48.1-127-93.57-158.42-138c0,0-2.94-4.16-3.28-18.84,0-1.7,0-3.59,0-5.48a45.37,45.37,0,0,0,.34-11.51l0-.36,0,0C171.84,60.6,164.2,45,149.21,30Z" transform="translate(0.41 -0.96)"/>
	<g id="TEXT">
		<path id="S" d="M329.53,425l9.75-21.89a66.11,66.11,0,0,0,34.62,10.35c12.3,0,17.09-3.45,17.09-8.55,0-16.64-59.66-4.49-59.66-43.47,0-18.74,15.29-34,46.47-34,13.64,0,27.73,3.15,38.08,9.15l-9.15,22c-10-5.39-19.93-8.09-29.08-8.09-12.44,0-16.94,4.2-16.94,9.44,0,16,59.51,4.05,59.51,42.72,0,18.29-15.29,33.88-46.47,33.88C356.52,436.52,339.43,431.87,329.53,425Z" transform="translate(0.41 -0.96)"/>
		<path id="D" d="M216.06,329.49h49.61c34.78,0,58.61,20.24,58.61,52.47s-23.83,52.46-58.61,52.46H216.06Zm48.41,81.25c17.84,0,29.83-10.64,29.83-28.78s-12-28.78-29.83-28.78H245.74v57.56Z" transform="translate(0.41 -0.96)"/>
		<path id="A" d="M168.53,414H124.16l-8.24,20.38H85.64L132,329.49h29.23l46.47,104.93H176.78Zm-8.69-21.89-13.49-33.58-13.49,33.58Z" transform="translate(0.41 -0.96)"/>
		<path id="L" d="M-.41,329.49H29.27v81.4H79.34v23.53H-.41Z" transform="translate(0.41 -0.96)"/>
	</g>
</svg>
